<svg width="1141" height="573" viewBox="0 0 1141 573" fill="none" xmlns="http://www.w3.org/2000/svg">
<rect x="0.25" y="0.25" width="1140.5" height="572.5" rx="14.75" stroke="#FDB814" stroke-width="0.5"/>
<path d="M102.88 72H105.28L100.3 58.08H97.66L92.68 72H95.06L96.06 69.16H101.88L102.88 72ZM101.24 67.3H96.7L98.98 60.84L101.24 67.3ZM107.725 72H110.025V62.84H112.065V60.98H110.025V60.2C110.025 58.94 110.505 58.46 111.905 58.46V56.56C109.025 56.56 107.725 57.66 107.725 60.2V60.98H106.425V62.84H107.725V72ZM114.446 68.94C114.446 71.18 115.666 72 117.626 72H119.426V70.1H118.026C117.066 70.1 116.746 69.76 116.746 68.94V62.84H119.426V60.98H116.746V58.24H114.446V60.98H113.146V62.84H114.446V68.94ZM126.167 62.72C127.867 62.72 129.207 63.8 129.247 65.5H123.147C123.387 63.76 124.627 62.72 126.167 62.72ZM131.327 68.72H128.867C128.447 69.58 127.667 70.26 126.267 70.26C124.587 70.26 123.287 69.16 123.127 67.34H131.547C131.607 66.96 131.627 66.6 131.627 66.22C131.627 62.98 129.407 60.8 126.267 60.8C123.007 60.8 120.767 63.02 120.767 66.48C120.767 69.94 123.107 72.18 126.267 72.18C128.967 72.18 130.707 70.64 131.327 68.72ZM136.151 66.2C136.151 63.86 137.191 63.16 138.871 63.16H139.451V60.8C137.891 60.8 136.791 61.48 136.151 62.58V60.98H133.871V72H136.151V66.2ZM147.102 68.94C147.102 71.18 148.322 72 150.282 72H152.082V70.1H150.682C149.722 70.1 149.402 69.76 149.402 68.94V62.84H152.082V60.98H149.402V58.24H147.102V60.98H145.802V62.84H147.102V68.94ZM154.184 72H156.464V65.84C156.464 63.82 157.564 62.78 159.244 62.78C160.904 62.78 162.004 63.82 162.004 65.84V72H164.264V65.5C164.264 62.42 162.344 60.8 159.884 60.8C158.464 60.8 157.224 61.34 156.464 62.26V57.2H154.184V72ZM171.812 62.72C173.512 62.72 174.852 63.8 174.892 65.5H168.792C169.032 63.76 170.272 62.72 171.812 62.72ZM176.972 68.72H174.512C174.092 69.58 173.312 70.26 171.912 70.26C170.232 70.26 168.932 69.16 168.772 67.34H177.192C177.252 66.96 177.272 66.6 177.272 66.22C177.272 62.98 175.052 60.8 171.912 60.8C168.652 60.8 166.412 63.02 166.412 66.48C166.412 69.94 168.752 72.18 171.912 72.18C174.612 72.18 176.352 70.64 176.972 68.72ZM183.951 66.44C183.951 69.84 186.251 72.18 189.111 72.18C190.951 72.18 192.271 71.3 192.971 70.36V72H195.271V60.98H192.971V62.58C192.291 61.68 191.011 60.8 189.151 60.8C186.251 60.8 183.951 63.04 183.951 66.44ZM192.971 66.48C192.971 68.86 191.351 70.2 189.631 70.2C187.931 70.2 186.291 68.82 186.291 66.44C186.291 64.06 187.931 62.78 189.631 62.78C191.351 62.78 192.971 64.12 192.971 66.48ZM200.546 62.6V60.98H198.266V77.24H200.546V70.4C201.266 71.26 202.566 72.18 204.386 72.18C207.286 72.18 209.566 69.84 209.566 66.44C209.566 63.04 207.286 60.8 204.386 60.8C202.586 60.8 201.246 61.68 200.546 62.6ZM207.246 66.44C207.246 68.82 205.606 70.2 203.886 70.2C202.186 70.2 200.546 68.86 200.546 66.48C200.546 64.12 202.186 62.78 203.886 62.78C205.606 62.78 207.246 64.06 207.246 66.44ZM214.1 62.6V60.98H211.82V77.24H214.1V70.4C214.82 71.26 216.12 72.18 217.94 72.18C220.84 72.18 223.12 69.84 223.12 66.44C223.12 63.04 220.84 60.8 217.94 60.8C216.14 60.8 214.8 61.68 214.1 62.6ZM220.8 66.44C220.8 68.82 219.16 70.2 217.44 70.2C215.74 70.2 214.1 68.86 214.1 66.48C214.1 64.12 215.74 62.78 217.44 62.78C219.16 62.78 220.8 64.06 220.8 66.44ZM227.655 66.2C227.655 63.86 228.695 63.16 230.375 63.16H230.955V60.8C229.395 60.8 228.295 61.48 227.655 62.58V60.98H225.375V72H227.655V66.2ZM232.291 66.44C232.291 69.84 234.591 72.18 237.451 72.18C239.291 72.18 240.611 71.3 241.311 70.36V72H243.611V60.98H241.311V62.58C240.631 61.68 239.351 60.8 237.491 60.8C234.591 60.8 232.291 63.04 232.291 66.44ZM241.311 66.48C241.311 68.86 239.691 70.2 237.971 70.2C236.271 70.2 234.631 68.82 234.631 66.44C234.631 64.06 236.271 62.78 237.971 62.78C239.691 62.78 241.311 64.12 241.311 66.48ZM246.605 72H248.885V60.98H246.605V72ZM247.765 59.52C248.565 59.52 249.205 58.88 249.205 58.06C249.205 57.24 248.565 56.6 247.765 56.6C246.945 56.6 246.305 57.24 246.305 58.06C246.305 58.88 246.945 59.52 247.765 59.52ZM260.099 68.92C259.979 64.94 253.759 66.18 253.759 63.96C253.759 63.22 254.399 62.72 255.619 62.72C256.859 62.72 257.599 63.38 257.679 64.34H259.959C259.839 62.14 258.199 60.8 255.699 60.8C253.099 60.8 251.459 62.22 251.459 63.98C251.459 68.02 257.859 66.78 257.859 68.94C257.859 69.7 257.159 70.26 255.839 70.26C254.579 70.26 253.719 69.52 253.639 68.62H251.279C251.379 70.62 253.239 72.18 255.879 72.18C258.479 72.18 260.099 70.78 260.099 68.92ZM261.803 66.44C261.803 69.84 264.103 72.18 266.963 72.18C268.803 72.18 270.123 71.3 270.823 70.36V72H273.123V60.98H270.823V62.58C270.143 61.68 268.863 60.8 267.003 60.8C264.103 60.8 261.803 63.04 261.803 66.44ZM270.823 66.48C270.823 68.86 269.203 70.2 267.483 70.2C265.783 70.2 264.143 68.82 264.143 66.44C264.143 64.06 265.783 62.78 267.483 62.78C269.203 62.78 270.823 64.12 270.823 66.48ZM276.117 72H278.397V57.2H276.117V72ZM279.991 74.78H281.471L283.891 69.26H281.411L279.991 74.78ZM293.358 66.2C293.358 63.86 294.398 63.16 296.078 63.16H296.658V60.8C295.098 60.8 293.998 61.48 293.358 62.58V60.98H291.078V72H293.358V66.2ZM303.394 62.72C305.094 62.72 306.434 63.8 306.474 65.5H300.374C300.614 63.76 301.854 62.72 303.394 62.72ZM308.554 68.72H306.094C305.674 69.58 304.894 70.26 303.494 70.26C301.814 70.26 300.514 69.16 300.354 67.34H308.774C308.834 66.96 308.854 66.6 308.854 66.22C308.854 62.98 306.634 60.8 303.494 60.8C300.234 60.8 297.994 63.02 297.994 66.48C297.994 69.94 300.334 72.18 303.494 72.18C306.194 72.18 307.934 70.64 308.554 68.72ZM310.338 66.44C310.338 69.84 312.638 72.18 315.498 72.18C317.338 72.18 318.658 71.3 319.358 70.36V72H321.658V60.98H319.358V62.58C318.678 61.68 317.398 60.8 315.538 60.8C312.638 60.8 310.338 63.04 310.338 66.44ZM319.358 66.48C319.358 68.86 317.738 70.2 316.018 70.2C314.318 70.2 312.678 68.82 312.678 66.44C312.678 64.06 314.318 62.78 316.018 62.78C317.738 62.78 319.358 64.12 319.358 66.48ZM324.652 72H326.932V57.2H324.652V72ZM339.761 62.72C341.461 62.72 342.801 63.8 342.841 65.5H336.741C336.981 63.76 338.221 62.72 339.761 62.72ZM344.921 68.72H342.461C342.041 69.58 341.261 70.26 339.861 70.26C338.181 70.26 336.881 69.16 336.721 67.34H345.141C345.201 66.96 345.221 66.6 345.221 66.22C345.221 62.98 343.001 60.8 339.861 60.8C336.601 60.8 334.361 63.02 334.361 66.48C334.361 69.94 336.701 72.18 339.861 72.18C342.561 72.18 344.301 70.64 344.921 68.72ZM355.685 68.92C355.565 64.94 349.345 66.18 349.345 63.96C349.345 63.22 349.985 62.72 351.205 62.72C352.445 62.72 353.185 63.38 353.265 64.34H355.545C355.425 62.14 353.785 60.8 351.285 60.8C348.685 60.8 347.045 62.22 347.045 63.98C347.045 68.02 353.445 66.78 353.445 68.94C353.445 69.7 352.745 70.26 351.425 70.26C350.165 70.26 349.305 69.52 349.225 68.62H346.865C346.965 70.62 348.825 72.18 351.465 72.18C354.065 72.18 355.685 70.78 355.685 68.92ZM358.508 68.94C358.508 71.18 359.728 72 361.688 72H363.488V70.1H362.088C361.128 70.1 360.808 69.76 360.808 68.94V62.84H363.488V60.98H360.808V58.24H358.508V60.98H357.208V62.84H358.508V68.94ZM364.83 66.44C364.83 69.84 367.13 72.18 369.99 72.18C371.83 72.18 373.15 71.3 373.85 70.36V72H376.15V60.98H373.85V62.58C373.17 61.68 371.89 60.8 370.03 60.8C367.13 60.8 364.83 63.04 364.83 66.44ZM373.85 66.48C373.85 68.86 372.23 70.2 370.51 70.2C368.81 70.2 367.17 68.82 367.17 66.44C367.17 64.06 368.81 62.78 370.51 62.78C372.23 62.78 373.85 64.12 373.85 66.48ZM379.505 68.94C379.505 71.18 380.725 72 382.685 72H384.485V70.1H383.085C382.125 70.1 381.805 69.76 381.805 68.94V62.84H384.485V60.98H381.805V58.24H379.505V60.98H378.205V62.84H379.505V68.94ZM391.226 62.72C392.926 62.72 394.266 63.8 394.306 65.5H388.206C388.446 63.76 389.686 62.72 391.226 62.72ZM396.386 68.72H393.926C393.506 69.58 392.726 70.26 391.326 70.26C389.646 70.26 388.346 69.16 388.186 67.34H396.606C396.666 66.96 396.686 66.6 396.686 66.22C396.686 62.98 394.466 60.8 391.326 60.8C388.066 60.8 385.826 63.02 385.826 66.48C385.826 69.94 388.166 72.18 391.326 72.18C394.026 72.18 395.766 70.64 396.386 68.72ZM404.125 72H406.405V60.98H404.125V72ZM405.285 59.52C406.085 59.52 406.725 58.88 406.725 58.06C406.725 57.24 406.085 56.6 405.285 56.6C404.465 56.6 403.825 57.24 403.825 58.06C403.825 58.88 404.465 59.52 405.285 59.52ZM417.618 68.92C417.498 64.94 411.278 66.18 411.278 63.96C411.278 63.22 411.918 62.72 413.138 62.72C414.378 62.72 415.118 63.38 415.198 64.34H417.478C417.358 62.14 415.718 60.8 413.218 60.8C410.618 60.8 408.978 62.22 408.978 63.98C408.978 68.02 415.378 66.78 415.378 68.94C415.378 69.7 414.678 70.26 413.358 70.26C412.098 70.26 411.238 69.52 411.158 68.62H408.798C408.898 70.62 410.758 72.18 413.398 72.18C415.998 72.18 417.618 70.78 417.618 68.92ZM425.277 72H427.557V57.2H425.277V72ZM430.551 72H432.831V60.98H430.551V72ZM431.711 59.52C432.511 59.52 433.151 58.88 433.151 58.06C433.151 57.24 432.511 56.6 431.711 56.6C430.891 56.6 430.251 57.24 430.251 58.06C430.251 58.88 430.891 59.52 431.711 59.52ZM444.044 68.92C443.924 64.94 437.704 66.18 437.704 63.96C437.704 63.22 438.344 62.72 439.564 62.72C440.804 62.72 441.544 63.38 441.624 64.34H443.904C443.784 62.14 442.144 60.8 439.644 60.8C437.044 60.8 435.404 62.22 435.404 63.98C435.404 68.02 441.804 66.78 441.804 68.94C441.804 69.7 441.104 70.26 439.784 70.26C438.524 70.26 437.664 69.52 437.584 68.62H435.224C435.324 70.62 437.184 72.18 439.824 72.18C442.424 72.18 444.044 70.78 444.044 68.92ZM446.868 68.94C446.868 71.18 448.088 72 450.048 72H451.848V70.1H450.448C449.488 70.1 449.168 69.76 449.168 68.94V62.84H451.848V60.98H449.168V58.24H446.868V60.98H445.568V62.84H446.868V68.94ZM458.589 62.72C460.289 62.72 461.629 63.8 461.669 65.5H455.569C455.809 63.76 457.049 62.72 458.589 62.72ZM463.749 68.72H461.289C460.869 69.58 460.089 70.26 458.689 70.26C457.009 70.26 455.709 69.16 455.549 67.34H463.969C464.029 66.96 464.049 66.6 464.049 66.22C464.049 62.98 461.829 60.8 458.689 60.8C455.429 60.8 453.189 63.02 453.189 66.48C453.189 69.94 455.529 72.18 458.689 72.18C461.389 72.18 463.129 70.64 463.749 68.72ZM465.533 66.44C465.533 69.84 467.833 72.18 470.733 72.18C472.533 72.18 473.853 71.34 474.553 70.34V72H476.853V57.2H474.553V62.52C473.713 61.48 472.193 60.8 470.753 60.8C467.833 60.8 465.533 63.04 465.533 66.44ZM474.553 66.48C474.553 68.86 472.933 70.2 471.213 70.2C469.513 70.2 467.873 68.82 467.873 66.44C467.873 64.06 469.513 62.78 471.213 62.78C472.933 62.78 474.553 64.12 474.553 66.48Z" fill="white"/>
<path d="M98.94 203.66L94.82 192.1H92.38L97.62 206H100.26L105.48 192.1H103.08L98.94 203.66ZM112.027 196.72C113.727 196.72 115.067 197.8 115.107 199.5H109.007C109.247 197.76 110.487 196.72 112.027 196.72ZM117.187 202.72H114.727C114.307 203.58 113.527 204.26 112.127 204.26C110.447 204.26 109.147 203.16 108.987 201.34H117.407C117.467 200.96 117.487 200.6 117.487 200.22C117.487 196.98 115.267 194.8 112.127 194.8C108.867 194.8 106.627 197.02 106.627 200.48C106.627 203.94 108.967 206.18 112.127 206.18C114.827 206.18 116.567 204.64 117.187 202.72ZM122.01 200.2C122.01 197.86 123.05 197.16 124.73 197.16H125.31V194.8C123.75 194.8 122.65 195.48 122.01 196.58V194.98H119.73V206H122.01V200.2ZM127.406 206H129.686V194.98H127.406V206ZM128.566 193.52C129.366 193.52 130.006 192.88 130.006 192.06C130.006 191.24 129.366 190.6 128.566 190.6C127.746 190.6 127.106 191.24 127.106 192.06C127.106 192.88 127.746 193.52 128.566 193.52ZM132.96 206H135.26V196.84H137.3V194.98H135.26V194.2C135.26 192.94 135.74 192.46 137.14 192.46V190.56C134.26 190.56 132.96 191.66 132.96 194.2V194.98H131.66V196.84H132.96V206ZM139.32 206H141.6V194.98H139.32V206ZM140.48 193.52C141.28 193.52 141.92 192.88 141.92 192.06C141.92 191.24 141.28 190.6 140.48 190.6C139.66 190.6 139.02 191.24 139.02 192.06C139.02 192.88 139.66 193.52 140.48 193.52ZM143.834 200.48C143.834 203.94 146.074 206.18 149.234 206.18C151.934 206.18 153.694 204.68 154.314 202.52H151.854C151.434 203.66 150.594 204.26 149.234 204.26C147.394 204.26 146.174 202.9 146.174 200.48C146.174 198.08 147.394 196.72 149.234 196.72C150.594 196.72 151.474 197.4 151.854 198.46H154.314C153.694 196.14 151.934 194.8 149.234 194.8C146.074 194.8 143.834 197.04 143.834 200.48ZM155.826 200.44C155.826 203.84 158.126 206.18 160.986 206.18C162.826 206.18 164.146 205.3 164.846 204.36V206H167.146V194.98H164.846V196.58C164.166 195.68 162.886 194.8 161.026 194.8C158.126 194.8 155.826 197.04 155.826 200.44ZM164.846 200.48C164.846 202.86 163.226 204.2 161.506 204.2C159.806 204.2 158.166 202.82 158.166 200.44C158.166 198.06 159.806 196.78 161.506 196.78C163.226 196.78 164.846 198.12 164.846 200.48ZM170.501 202.94C170.501 205.18 171.721 206 173.681 206H175.481V204.1H174.081C173.121 204.1 172.801 203.76 172.801 202.94V196.84H175.481V194.98H172.801V192.24H170.501V194.98H169.201V196.84H170.501V202.94ZM177.582 206H179.862V194.98H177.582V206ZM178.742 193.52C179.542 193.52 180.182 192.88 180.182 192.06C180.182 191.24 179.542 190.6 178.742 190.6C177.922 190.6 177.282 191.24 177.282 192.06C177.282 192.88 177.922 193.52 178.742 193.52ZM193.355 200.48C193.355 197.02 190.875 194.8 187.735 194.8C184.595 194.8 182.115 197.02 182.115 200.48C182.115 203.94 184.495 206.18 187.635 206.18C190.795 206.18 193.355 203.94 193.355 200.48ZM184.435 200.48C184.435 197.98 185.975 196.78 187.695 196.78C189.395 196.78 191.015 197.98 191.015 200.48C191.015 202.98 189.335 204.2 187.635 204.2C185.915 204.2 184.435 202.98 184.435 200.48ZM203.429 206H205.689V199.5C205.689 196.42 203.749 194.8 201.169 194.8C199.849 194.8 198.629 195.34 197.889 196.24V194.98H195.609V206H197.889V199.84C197.889 197.82 198.989 196.78 200.669 196.78C202.329 196.78 203.429 197.82 203.429 199.84V206ZM224.293 200.48C224.293 197.02 221.813 194.8 218.673 194.8C215.533 194.8 213.053 197.02 213.053 200.48C213.053 203.94 215.433 206.18 218.573 206.18C221.733 206.18 224.293 203.94 224.293 200.48ZM215.373 200.48C215.373 197.98 216.913 196.78 218.633 196.78C220.333 196.78 221.953 197.98 221.953 200.48C221.953 202.98 220.273 204.2 218.573 204.2C216.853 204.2 215.373 202.98 215.373 200.48ZM226.827 206H229.127V196.84H231.167V194.98H229.127V194.2C229.127 192.94 229.607 192.46 231.007 192.46V190.56C228.127 190.56 226.827 191.66 226.827 194.2V194.98H225.527V196.84H226.827V206ZM237.623 200.48C237.623 203.94 239.863 206.18 243.023 206.18C245.723 206.18 247.483 204.68 248.103 202.52H245.643C245.223 203.66 244.383 204.26 243.023 204.26C241.183 204.26 239.963 202.9 239.963 200.48C239.963 198.08 241.183 196.72 243.023 196.72C244.383 196.72 245.263 197.4 245.643 198.46H248.103C247.483 196.14 245.723 194.8 243.023 194.8C239.863 194.8 237.623 197.04 237.623 200.48ZM260.875 200.48C260.875 197.02 258.395 194.8 255.255 194.8C252.115 194.8 249.635 197.02 249.635 200.48C249.635 203.94 252.015 206.18 255.155 206.18C258.315 206.18 260.875 203.94 260.875 200.48ZM251.955 200.48C251.955 197.98 253.495 196.78 255.215 196.78C256.915 196.78 258.535 197.98 258.535 200.48C258.535 202.98 256.855 204.2 255.155 204.2C253.435 204.2 251.955 202.98 251.955 200.48ZM262.369 200.44C262.369 203.84 264.669 206.18 267.569 206.18C269.369 206.18 270.689 205.34 271.389 204.34V206H273.689V191.2H271.389V196.52C270.549 195.48 269.029 194.8 267.589 194.8C264.669 194.8 262.369 197.04 262.369 200.44ZM271.389 200.48C271.389 202.86 269.769 204.2 268.049 204.2C266.349 204.2 264.709 202.82 264.709 200.44C264.709 198.06 266.349 196.78 268.049 196.78C269.769 196.78 271.389 198.12 271.389 200.48ZM281.324 196.72C283.024 196.72 284.364 197.8 284.404 199.5H278.304C278.544 197.76 279.784 196.72 281.324 196.72ZM286.484 202.72H284.024C283.604 203.58 282.824 204.26 281.424 204.26C279.744 204.26 278.444 203.16 278.284 201.34H286.704C286.764 200.96 286.784 200.6 286.784 200.22C286.784 196.98 284.564 194.8 281.424 194.8C278.164 194.8 275.924 197.02 275.924 200.48C275.924 203.94 278.264 206.18 281.424 206.18C284.124 206.18 285.864 204.64 286.484 202.72ZM297.247 202.92C297.127 198.94 290.907 200.18 290.907 197.96C290.907 197.22 291.547 196.72 292.767 196.72C294.007 196.72 294.747 197.38 294.827 198.34H297.107C296.987 196.14 295.347 194.8 292.847 194.8C290.247 194.8 288.607 196.22 288.607 197.98C288.607 202.02 295.007 200.78 295.007 202.94C295.007 203.7 294.307 204.26 292.987 204.26C291.727 204.26 290.867 203.52 290.787 202.62H288.427C288.527 204.62 290.387 206.18 293.027 206.18C295.627 206.18 297.247 204.78 297.247 202.92ZM304.146 200.44C304.146 203.84 306.446 206.18 309.306 206.18C311.146 206.18 312.466 205.3 313.166 204.36V206H315.466V194.98H313.166V196.58C312.486 195.68 311.206 194.8 309.346 194.8C306.446 194.8 304.146 197.04 304.146 200.44ZM313.166 200.48C313.166 202.86 311.546 204.2 309.826 204.2C308.126 204.2 306.486 202.82 306.486 200.44C306.486 198.06 308.126 196.78 309.826 196.78C311.546 196.78 313.166 198.12 313.166 200.48ZM326.281 206H328.541V199.5C328.541 196.42 326.601 194.8 324.021 194.8C322.701 194.8 321.481 195.34 320.741 196.24V194.98H318.461V206H320.741V199.84C320.741 197.82 321.841 196.78 323.521 196.78C325.181 196.78 326.281 197.82 326.281 199.84V206ZM330.689 200.44C330.689 203.84 332.989 206.18 335.889 206.18C337.689 206.18 339.009 205.34 339.709 204.34V206H342.009V191.2H339.709V196.52C338.869 195.48 337.349 194.8 335.909 194.8C332.989 194.8 330.689 197.04 330.689 200.44ZM339.709 200.48C339.709 202.86 338.089 204.2 336.369 204.2C334.669 204.2 333.029 202.82 333.029 200.44C333.029 198.06 334.669 196.78 336.369 196.78C338.089 196.78 339.709 198.12 339.709 200.48ZM352.479 200.2C352.479 197.86 353.519 197.16 355.199 197.16H355.779V194.8C354.219 194.8 353.119 195.48 352.479 196.58V194.98H350.199V206H352.479V200.2ZM362.515 196.72C364.215 196.72 365.555 197.8 365.595 199.5H359.495C359.735 197.76 360.975 196.72 362.515 196.72ZM367.675 202.72H365.215C364.795 203.58 364.015 204.26 362.615 204.26C360.935 204.26 359.635 203.16 359.475 201.34H367.895C367.955 200.96 367.975 200.6 367.975 200.22C367.975 196.98 365.755 194.8 362.615 194.8C359.355 194.8 357.115 197.02 357.115 200.48C357.115 203.94 359.455 206.18 362.615 206.18C365.315 206.18 367.055 204.64 367.675 202.72ZM369.459 200.44C369.459 203.84 371.759 206.18 374.619 206.18C376.459 206.18 377.779 205.3 378.479 204.36V206H380.779V194.98H378.479V196.58C377.799 195.68 376.519 194.8 374.659 194.8C371.759 194.8 369.459 197.04 369.459 200.44ZM378.479 200.48C378.479 202.86 376.859 204.2 375.139 204.2C373.439 204.2 371.799 202.82 371.799 200.44C371.799 198.06 373.439 196.78 375.139 196.78C376.859 196.78 378.479 198.12 378.479 200.48ZM383.773 206H386.053V191.2H383.773V206ZM398.882 196.72C400.582 196.72 401.922 197.8 401.962 199.5H395.862C396.102 197.76 397.342 196.72 398.882 196.72ZM404.042 202.72H401.582C401.162 203.58 400.382 204.26 398.982 204.26C397.302 204.26 396.002 203.16 395.842 201.34H404.262C404.322 200.96 404.342 200.6 404.342 200.22C404.342 196.98 402.122 194.8 398.982 194.8C395.722 194.8 393.482 197.02 393.482 200.48C393.482 203.94 395.822 206.18 398.982 206.18C401.682 206.18 403.422 204.64 404.042 202.72ZM414.806 202.92C414.686 198.94 408.466 200.18 408.466 197.96C408.466 197.22 409.106 196.72 410.326 196.72C411.566 196.72 412.306 197.38 412.386 198.34H414.666C414.546 196.14 412.906 194.8 410.406 194.8C407.806 194.8 406.166 196.22 406.166 197.98C406.166 202.02 412.566 200.78 412.566 202.94C412.566 203.7 411.866 204.26 410.546 204.26C409.286 204.26 408.426 203.52 408.346 202.62H405.986C406.086 204.62 407.946 206.18 410.586 206.18C413.186 206.18 414.806 204.78 414.806 202.92ZM417.63 202.94C417.63 205.18 418.85 206 420.81 206H422.61V204.1H421.21C420.25 204.1 419.93 203.76 419.93 202.94V196.84H422.61V194.98H419.93V192.24H417.63V194.98H416.33V196.84H417.63V202.94ZM423.951 200.44C423.951 203.84 426.251 206.18 429.111 206.18C430.951 206.18 432.271 205.3 432.971 204.36V206H435.271V194.98H432.971V196.58C432.291 195.68 431.011 194.8 429.151 194.8C426.251 194.8 423.951 197.04 423.951 200.44ZM432.971 200.48C432.971 202.86 431.351 204.2 429.631 204.2C427.931 204.2 426.291 202.82 426.291 200.44C426.291 198.06 427.931 196.78 429.631 196.78C431.351 196.78 432.971 198.12 432.971 200.48ZM438.626 202.94C438.626 205.18 439.846 206 441.806 206H443.606V204.1H442.206C441.246 204.1 440.926 203.76 440.926 202.94V196.84H443.606V194.98H440.926V192.24H438.626V194.98H437.326V196.84H438.626V202.94ZM450.347 196.72C452.047 196.72 453.387 197.8 453.427 199.5H447.327C447.567 197.76 448.807 196.72 450.347 196.72ZM455.507 202.72H453.047C452.627 203.58 451.847 204.26 450.447 204.26C448.767 204.26 447.467 203.16 447.307 201.34H455.727C455.787 200.96 455.807 200.6 455.807 200.22C455.807 196.98 453.587 194.8 450.447 194.8C447.187 194.8 444.947 197.02 444.947 200.48C444.947 203.94 447.287 206.18 450.447 206.18C453.147 206.18 454.887 204.64 455.507 202.72ZM463.246 206H465.526V191.2H463.246V206ZM468.52 206H470.8V194.98H468.52V206ZM469.68 193.52C470.48 193.52 471.12 192.88 471.12 192.06C471.12 191.24 470.48 190.6 469.68 190.6C468.86 190.6 468.22 191.24 468.22 192.06C468.22 192.88 468.86 193.52 469.68 193.52ZM482.013 202.92C481.893 198.94 475.673 200.18 475.673 197.96C475.673 197.22 476.313 196.72 477.533 196.72C478.773 196.72 479.513 197.38 479.593 198.34H481.873C481.753 196.14 480.113 194.8 477.613 194.8C475.013 194.8 473.373 196.22 473.373 197.98C473.373 202.02 479.773 200.78 479.773 202.94C479.773 203.7 479.073 204.26 477.753 204.26C476.493 204.26 475.633 203.52 475.553 202.62H473.193C473.293 204.62 475.153 206.18 477.793 206.18C480.393 206.18 482.013 204.78 482.013 202.92ZM484.837 202.94C484.837 205.18 486.057 206 488.017 206H489.817V204.1H488.417C487.457 204.1 487.137 203.76 487.137 202.94V196.84H489.817V194.98H487.137V192.24H484.837V194.98H483.537V196.84H484.837V202.94ZM491.918 206H494.198V194.98H491.918V206ZM493.078 193.52C493.878 193.52 494.518 192.88 494.518 192.06C494.518 191.24 493.878 190.6 493.078 190.6C492.258 190.6 491.618 191.24 491.618 192.06C491.618 192.88 492.258 193.52 493.078 193.52ZM505.011 206H507.271V199.5C507.271 196.42 505.331 194.8 502.751 194.8C501.431 194.8 500.211 195.34 499.471 196.24V194.98H497.191V206H499.471V199.84C499.471 197.82 500.571 196.78 502.251 196.78C503.911 196.78 505.011 197.82 505.011 199.84V206ZM509.42 200.44C509.42 203.84 511.72 206.18 514.62 206.18C516.42 206.18 517.74 205.28 518.44 204.34V206.18C518.44 208.38 517.12 209.46 515.36 209.46C513.78 209.46 512.56 208.68 512.22 207.54H509.96C510.24 209.98 512.42 211.44 515.36 211.44C518.8 211.44 520.74 209.18 520.74 206.18V194.98H518.44V196.58C517.76 195.64 516.42 194.8 514.62 194.8C511.72 194.8 509.42 197.04 509.42 200.44ZM518.44 200.48C518.44 202.86 516.82 204.2 515.1 204.2C513.4 204.2 511.76 202.82 511.76 200.44C511.76 198.06 513.4 196.78 515.1 196.78C516.82 196.78 518.44 198.12 518.44 200.48ZM531.954 202.92C531.834 198.94 525.614 200.18 525.614 197.96C525.614 197.22 526.254 196.72 527.474 196.72C528.714 196.72 529.454 197.38 529.534 198.34H531.814C531.694 196.14 530.054 194.8 527.554 194.8C524.954 194.8 523.314 196.22 523.314 197.98C523.314 202.02 529.714 200.78 529.714 202.94C529.714 203.7 529.014 204.26 527.694 204.26C526.434 204.26 525.574 203.52 525.494 202.62H523.134C523.234 204.62 525.094 206.18 527.734 206.18C530.334 206.18 531.954 204.78 531.954 202.92Z" fill="white"/>
<path d="M707.74 200.48C707.74 203.94 709.98 206.18 713.14 206.18C715.84 206.18 717.6 204.68 718.22 202.52H715.76C715.34 203.66 714.5 204.26 713.14 204.26C711.3 204.26 710.08 202.9 710.08 200.48C710.08 198.08 711.3 196.72 713.14 196.72C714.5 196.72 715.38 197.4 715.76 198.46H718.22C717.6 196.14 715.84 194.8 713.14 194.8C709.98 194.8 707.74 197.04 707.74 200.48ZM720.492 206H722.772V199.84C722.772 197.82 723.872 196.78 725.552 196.78C727.212 196.78 728.312 197.82 728.312 199.84V206H730.572V199.5C730.572 196.42 728.652 194.8 726.192 194.8C724.772 194.8 723.532 195.34 722.772 196.26V191.2H720.492V206ZM743.98 200.48C743.98 197.02 741.5 194.8 738.36 194.8C735.22 194.8 732.74 197.02 732.74 200.48C732.74 203.94 735.12 206.18 738.26 206.18C741.42 206.18 743.98 203.94 743.98 200.48ZM735.06 200.48C735.06 197.98 736.6 196.78 738.32 196.78C740.02 196.78 741.64 197.98 741.64 200.48C741.64 202.98 739.96 204.2 738.26 204.2C736.54 204.2 735.06 202.98 735.06 200.48ZM756.734 200.48C756.734 197.02 754.254 194.8 751.114 194.8C747.974 194.8 745.494 197.02 745.494 200.48C745.494 203.94 747.874 206.18 751.014 206.18C754.174 206.18 756.734 203.94 756.734 200.48ZM747.814 200.48C747.814 197.98 749.354 196.78 751.074 196.78C752.774 196.78 754.394 197.98 754.394 200.48C754.394 202.98 752.714 204.2 751.014 204.2C749.294 204.2 747.814 202.98 747.814 200.48ZM767.208 202.92C767.088 198.94 760.868 200.18 760.868 197.96C760.868 197.22 761.508 196.72 762.728 196.72C763.968 196.72 764.708 197.38 764.788 198.34H767.068C766.948 196.14 765.308 194.8 762.808 194.8C760.208 194.8 758.568 196.22 758.568 197.98C758.568 202.02 764.968 200.78 764.968 202.94C764.968 203.7 764.268 204.26 762.948 204.26C761.688 204.26 760.828 203.52 760.748 202.62H758.388C758.488 204.62 760.348 206.18 762.988 206.18C765.588 206.18 767.208 204.78 767.208 202.92ZM774.312 196.72C776.012 196.72 777.352 197.8 777.392 199.5H771.292C771.532 197.76 772.772 196.72 774.312 196.72ZM779.472 202.72H777.012C776.592 203.58 775.812 204.26 774.412 204.26C772.732 204.26 771.432 203.16 771.272 201.34H779.692C779.752 200.96 779.772 200.6 779.772 200.22C779.772 196.98 777.552 194.8 774.412 194.8C771.152 194.8 768.912 197.02 768.912 200.48C768.912 203.94 771.252 206.18 774.412 206.18C777.112 206.18 778.852 204.64 779.472 202.72ZM787.211 206H789.491V194.98H787.211V206ZM788.371 193.52C789.171 193.52 789.811 192.88 789.811 192.06C789.811 191.24 789.171 190.6 788.371 190.6C787.551 190.6 786.911 191.24 786.911 192.06C786.911 192.88 787.551 193.52 788.371 193.52ZM800.304 206H802.564V199.5C802.564 196.42 800.624 194.8 798.044 194.8C796.724 194.8 795.504 195.34 794.764 196.24V194.98H792.484V206H794.764V199.84C794.764 197.82 795.864 196.78 797.544 196.78C799.204 196.78 800.304 197.82 800.304 199.84V206ZM804.173 194.98L808.353 206H811.073L815.273 194.98H812.853L809.733 203.96L806.613 194.98H804.173ZM821.636 196.72C823.336 196.72 824.676 197.8 824.716 199.5H818.616C818.856 197.76 820.096 196.72 821.636 196.72ZM826.796 202.72H824.336C823.916 203.58 823.136 204.26 821.736 204.26C820.056 204.26 818.756 203.16 818.596 201.34H827.016C827.076 200.96 827.096 200.6 827.096 200.22C827.096 196.98 824.876 194.8 821.736 194.8C818.476 194.8 816.236 197.02 816.236 200.48C816.236 203.94 818.576 206.18 821.736 206.18C824.436 206.18 826.176 204.64 826.796 202.72ZM837.56 202.92C837.44 198.94 831.22 200.18 831.22 197.96C831.22 197.22 831.86 196.72 833.08 196.72C834.32 196.72 835.06 197.38 835.14 198.34H837.42C837.3 196.14 835.66 194.8 833.16 194.8C830.56 194.8 828.92 196.22 828.92 197.98C828.92 202.02 835.32 200.78 835.32 202.94C835.32 203.7 834.62 204.26 833.3 204.26C832.04 204.26 831.18 203.52 831.1 202.62H828.74C828.84 204.62 830.7 206.18 833.34 206.18C835.94 206.18 837.56 204.78 837.56 202.92ZM840.383 202.94C840.383 205.18 841.603 206 843.563 206H845.363V204.1H843.963C843.003 204.1 842.683 203.76 842.683 202.94V196.84H845.363V194.98H842.683V192.24H840.383V194.98H839.083V196.84H840.383V202.94ZM863.085 206H865.345V199.5C865.345 196.42 863.385 194.8 860.805 194.8C859.205 194.8 857.645 195.64 856.965 196.98C856.205 195.54 854.745 194.8 853.005 194.8C851.685 194.8 850.485 195.34 849.745 196.24V194.98H847.465V206H849.745V199.84C849.745 197.82 850.845 196.78 852.525 196.78C854.185 196.78 855.285 197.82 855.285 199.84V206H857.545V199.84C857.545 197.82 858.645 196.78 860.325 196.78C861.985 196.78 863.085 197.82 863.085 199.84V206ZM872.886 196.72C874.586 196.72 875.926 197.8 875.966 199.5H869.866C870.106 197.76 871.346 196.72 872.886 196.72ZM878.046 202.72H875.586C875.166 203.58 874.386 204.26 872.986 204.26C871.306 204.26 870.006 203.16 869.846 201.34H878.266C878.326 200.96 878.346 200.6 878.346 200.22C878.346 196.98 876.126 194.8 872.986 194.8C869.726 194.8 867.486 197.02 867.486 200.48C867.486 203.94 869.826 206.18 872.986 206.18C875.686 206.18 877.426 204.64 878.046 202.72ZM888.41 206H890.67V199.5C890.67 196.42 888.73 194.8 886.15 194.8C884.83 194.8 883.61 195.34 882.87 196.24V194.98H880.59V206H882.87V199.84C882.87 197.82 883.97 196.78 885.65 196.78C887.31 196.78 888.41 197.82 888.41 199.84V206ZM893.938 202.94C893.938 205.18 895.158 206 897.118 206H898.918V204.1H897.518C896.558 204.1 896.238 203.76 896.238 202.94V196.84H898.918V194.98H896.238V192.24H893.938V194.98H892.638V196.84H893.938V202.94ZM908.495 196.6V194.98H906.215V211.24H908.495V204.4C909.215 205.26 910.515 206.18 912.335 206.18C915.235 206.18 917.515 203.84 917.515 200.44C917.515 197.04 915.235 194.8 912.335 194.8C910.535 194.8 909.195 195.68 908.495 196.6ZM915.195 200.44C915.195 202.82 913.555 204.2 911.835 204.2C910.135 204.2 908.495 202.86 908.495 200.48C908.495 198.12 910.135 196.78 911.835 196.78C913.555 196.78 915.195 198.06 915.195 200.44ZM922.05 200.2C922.05 197.86 923.09 197.16 924.77 197.16H925.35V194.8C923.79 194.8 922.69 195.48 922.05 196.58V194.98H919.77V206H922.05V200.2ZM937.945 200.48C937.945 197.02 935.465 194.8 932.325 194.8C929.185 194.8 926.705 197.02 926.705 200.48C926.705 203.94 929.085 206.18 932.225 206.18C935.385 206.18 937.945 203.94 937.945 200.48ZM929.025 200.48C929.025 197.98 930.565 196.78 932.285 196.78C933.985 196.78 935.605 197.98 935.605 200.48C935.605 202.98 933.925 204.2 932.225 204.2C930.505 204.2 929.025 202.98 929.025 200.48ZM939.439 200.44C939.439 203.84 941.739 206.18 944.639 206.18C946.439 206.18 947.759 205.34 948.459 204.34V206H950.759V191.2H948.459V196.52C947.619 195.48 946.099 194.8 944.659 194.8C941.739 194.8 939.439 197.04 939.439 200.44ZM948.459 200.48C948.459 202.86 946.839 204.2 945.119 204.2C943.419 204.2 941.779 202.82 941.779 200.44C941.779 198.06 943.419 196.78 945.119 196.78C946.839 196.78 948.459 198.12 948.459 200.48ZM963.734 194.98H961.454V201.12C961.454 203.14 960.354 204.18 958.674 204.18C957.014 204.18 955.914 203.14 955.914 201.12V194.98H953.654V201.46C953.654 204.54 955.614 206.16 958.194 206.16C959.494 206.16 960.734 205.62 961.454 204.68V206H963.734V194.98ZM965.982 200.48C965.982 203.94 968.222 206.18 971.382 206.18C974.082 206.18 975.842 204.68 976.462 202.52H974.002C973.582 203.66 972.742 204.26 971.382 204.26C969.542 204.26 968.322 202.9 968.322 200.48C968.322 198.08 969.542 196.72 971.382 196.72C972.742 196.72 973.622 197.4 974.002 198.46H976.462C975.842 196.14 974.082 194.8 971.382 194.8C968.222 194.8 965.982 197.04 965.982 200.48ZM979.094 202.94C979.094 205.18 980.314 206 982.274 206H984.074V204.1H982.674C981.714 204.1 981.394 203.76 981.394 202.94V196.84H984.074V194.98H981.394V192.24H979.094V194.98H977.794V196.84H979.094V202.94ZM994.396 202.92C994.276 198.94 988.056 200.18 988.056 197.96C988.056 197.22 988.696 196.72 989.916 196.72C991.156 196.72 991.896 197.38 991.976 198.34H994.256C994.136 196.14 992.496 194.8 989.996 194.8C987.396 194.8 985.756 196.22 985.756 197.98C985.756 202.02 992.156 200.78 992.156 202.94C992.156 203.7 991.456 204.26 990.136 204.26C988.876 204.26 988.016 203.52 987.936 202.62H985.576C985.676 204.62 987.536 206.18 990.176 206.18C992.776 206.18 994.396 204.78 994.396 202.92Z" fill="white"/>
<path d="M915.78 339.2C915.78 336.86 916.82 336.16 918.5 336.16H919.08V333.8C917.52 333.8 916.42 334.48 915.78 335.58V333.98H913.5V345H915.78V339.2ZM925.816 335.72C927.516 335.72 928.856 336.8 928.896 338.5H922.796C923.036 336.76 924.276 335.72 925.816 335.72ZM930.976 341.72H928.516C928.096 342.58 927.316 343.26 925.916 343.26C924.236 343.26 922.936 342.16 922.776 340.34H931.196C931.256 339.96 931.276 339.6 931.276 339.22C931.276 335.98 929.056 333.8 925.916 333.8C922.656 333.8 920.416 336.02 920.416 339.48C920.416 342.94 922.756 345.18 925.916 345.18C928.616 345.18 930.356 343.64 930.976 341.72ZM941.34 345H943.6V338.5C943.6 335.42 941.66 333.8 939.08 333.8C937.76 333.8 936.54 334.34 935.8 335.24V333.98H933.52V345H935.8V338.84C935.8 336.82 936.9 335.78 938.58 335.78C940.24 335.78 941.34 336.82 941.34 338.84V345ZM946.868 341.94C946.868 344.18 948.088 345 950.048 345H951.848V343.1H950.448C949.488 343.1 949.168 342.76 949.168 341.94V335.84H951.848V333.98H949.168V331.24H946.868V333.98H945.568V335.84H946.868V341.94ZM953.189 339.44C953.189 342.84 955.489 345.18 958.349 345.18C960.189 345.18 961.509 344.3 962.209 343.36V345H964.509V333.98H962.209V335.58C961.529 334.68 960.249 333.8 958.389 333.8C955.489 333.8 953.189 336.04 953.189 339.44ZM962.209 339.48C962.209 341.86 960.589 343.2 958.869 343.2C957.169 343.2 955.529 341.82 955.529 339.44C955.529 337.06 957.169 335.78 958.869 335.78C960.589 335.78 962.209 337.12 962.209 339.48ZM967.504 345H969.784V330.2H967.504V345ZM980.253 339.2C980.253 336.86 981.293 336.16 982.973 336.16H983.553V333.8C981.993 333.8 980.893 334.48 980.253 335.58V333.98H977.973V345H980.253V339.2ZM990.288 335.72C991.988 335.72 993.328 336.8 993.368 338.5H987.268C987.508 336.76 988.748 335.72 990.288 335.72ZM995.448 341.72H992.988C992.568 342.58 991.788 343.26 990.388 343.26C988.708 343.26 987.408 342.16 987.248 340.34H995.668C995.728 339.96 995.748 339.6 995.748 339.22C995.748 335.98 993.528 333.8 990.388 333.8C987.128 333.8 984.888 336.02 984.888 339.48C984.888 342.94 987.228 345.18 990.388 345.18C993.088 345.18 994.828 343.64 995.448 341.72ZM997.232 339.44C997.232 342.84 999.532 345.18 1002.39 345.18C1004.23 345.18 1005.55 344.3 1006.25 343.36V345H1008.55V333.98H1006.25V335.58C1005.57 334.68 1004.29 333.8 1002.43 333.8C999.532 333.8 997.232 336.04 997.232 339.44ZM1006.25 339.48C1006.25 341.86 1004.63 343.2 1002.91 343.2C1001.21 343.2 999.572 341.82 999.572 339.44C999.572 337.06 1001.21 335.78 1002.91 335.78C1004.63 335.78 1006.25 337.12 1006.25 339.48ZM1011.55 345H1013.83V330.2H1011.55V345ZM1026.66 335.72C1028.36 335.72 1029.7 336.8 1029.74 338.5H1023.64C1023.88 336.76 1025.12 335.72 1026.66 335.72ZM1031.82 341.72H1029.36C1028.94 342.58 1028.16 343.26 1026.76 343.26C1025.08 343.26 1023.78 342.16 1023.62 340.34H1032.04C1032.1 339.96 1032.12 339.6 1032.12 339.22C1032.12 335.98 1029.9 333.8 1026.76 333.8C1023.5 333.8 1021.26 336.02 1021.26 339.48C1021.26 342.94 1023.6 345.18 1026.76 345.18C1029.46 345.18 1031.2 343.64 1031.82 341.72ZM1042.58 341.92C1042.46 337.94 1036.24 339.18 1036.24 336.96C1036.24 336.22 1036.88 335.72 1038.1 335.72C1039.34 335.72 1040.08 336.38 1040.16 337.34H1042.44C1042.32 335.14 1040.68 333.8 1038.18 333.8C1035.58 333.8 1033.94 335.22 1033.94 336.98C1033.94 341.02 1040.34 339.78 1040.34 341.94C1040.34 342.7 1039.64 343.26 1038.32 343.26C1037.06 343.26 1036.2 342.52 1036.12 341.62H1033.76C1033.86 343.62 1035.72 345.18 1038.36 345.18C1040.96 345.18 1042.58 343.78 1042.58 341.92ZM1045.4 341.94C1045.4 344.18 1046.62 345 1048.58 345H1050.38V343.1H1048.98C1048.02 343.1 1047.7 342.76 1047.7 341.94V335.84H1050.38V333.98H1047.7V331.24H1045.4V333.98H1044.1V335.84H1045.4V341.94ZM1051.72 339.44C1051.72 342.84 1054.02 345.18 1056.88 345.18C1058.72 345.18 1060.04 344.3 1060.74 343.36V345H1063.04V333.98H1060.74V335.58C1060.06 334.68 1058.78 333.8 1056.92 333.8C1054.02 333.8 1051.72 336.04 1051.72 339.44ZM1060.74 339.48C1060.74 341.86 1059.12 343.2 1057.4 343.2C1055.7 343.2 1054.06 341.82 1054.06 339.44C1054.06 337.06 1055.7 335.78 1057.4 335.78C1059.12 335.78 1060.74 337.12 1060.74 339.48ZM1066.4 341.94C1066.4 344.18 1067.62 345 1069.58 345H1071.38V343.1H1069.98C1069.02 343.1 1068.7 342.76 1068.7 341.94V335.84H1071.38V333.98H1068.7V331.24H1066.4V333.98H1065.1V335.84H1066.4V341.94ZM1078.12 335.72C1079.82 335.72 1081.16 336.8 1081.2 338.5H1075.1C1075.34 336.76 1076.58 335.72 1078.12 335.72ZM1083.28 341.72H1080.82C1080.4 342.58 1079.62 343.26 1078.22 343.26C1076.54 343.26 1075.24 342.16 1075.08 340.34H1083.5C1083.56 339.96 1083.58 339.6 1083.58 339.22C1083.58 335.98 1081.36 333.8 1078.22 333.8C1074.96 333.8 1072.72 336.02 1072.72 339.48C1072.72 342.94 1075.06 345.18 1078.22 345.18C1080.92 345.18 1082.66 343.64 1083.28 341.72Z" fill="#FDB814"/>
<path d="M466.274 338.5V333.96H468.794C470.574 333.96 471.374 334.8 471.374 336.24C471.374 337.64 470.574 338.5 468.794 338.5H466.274ZM473.714 336.24C473.714 333.98 472.094 332.1 468.794 332.1H463.994V346H466.274V340.36H468.794C472.414 340.36 473.714 338.22 473.714 336.24ZM485.869 334.98H483.589V341.12C483.589 343.14 482.489 344.18 480.809 344.18C479.149 344.18 478.049 343.14 478.049 341.12V334.98H475.789V341.46C475.789 344.54 477.749 346.16 480.329 346.16C481.629 346.16 482.869 345.62 483.589 344.68V346H485.869V334.98ZM491.157 340.2C491.157 337.86 492.197 337.16 493.877 337.16H494.457V334.8C492.897 334.8 491.797 335.48 491.157 336.58V334.98H488.877V346H491.157V340.2ZM495.793 340.48C495.793 343.94 498.033 346.18 501.193 346.18C503.893 346.18 505.653 344.68 506.273 342.52H503.813C503.393 343.66 502.553 344.26 501.193 344.26C499.353 344.26 498.133 342.9 498.133 340.48C498.133 338.08 499.353 336.72 501.193 336.72C502.553 336.72 503.433 337.4 503.813 338.46H506.273C505.653 336.14 503.893 334.8 501.193 334.8C498.033 334.8 495.793 337.04 495.793 340.48ZM508.545 346H510.825V339.84C510.825 337.82 511.925 336.78 513.605 336.78C515.265 336.78 516.365 337.82 516.365 339.84V346H518.625V339.5C518.625 336.42 516.705 334.8 514.245 334.8C512.825 334.8 511.585 335.34 510.825 336.26V331.2H508.545V346ZM520.773 340.44C520.773 343.84 523.073 346.18 525.933 346.18C527.773 346.18 529.093 345.3 529.793 344.36V346H532.093V334.98H529.793V336.58C529.113 335.68 527.833 334.8 525.973 334.8C523.073 334.8 520.773 337.04 520.773 340.44ZM529.793 340.48C529.793 342.86 528.173 344.2 526.453 344.2C524.753 344.2 523.113 342.82 523.113 340.44C523.113 338.06 524.753 336.78 526.453 336.78C528.173 336.78 529.793 338.12 529.793 340.48ZM543.308 342.92C543.188 338.94 536.968 340.18 536.968 337.96C536.968 337.22 537.608 336.72 538.828 336.72C540.068 336.72 540.808 337.38 540.888 338.34H543.168C543.048 336.14 541.408 334.8 538.908 334.8C536.308 334.8 534.668 336.22 534.668 337.98C534.668 342.02 541.068 340.78 541.068 342.94C541.068 343.7 540.368 344.26 539.048 344.26C537.788 344.26 536.928 343.52 536.848 342.62H534.488C534.588 344.62 536.448 346.18 539.088 346.18C541.688 346.18 543.308 344.78 543.308 342.92ZM545.771 346H548.051V334.98H545.771V346ZM546.931 333.52C547.731 333.52 548.371 332.88 548.371 332.06C548.371 331.24 547.731 330.6 546.931 330.6C546.111 330.6 545.471 331.24 545.471 332.06C545.471 332.88 546.111 333.52 546.931 333.52ZM558.865 346H561.125V339.5C561.125 336.42 559.185 334.8 556.605 334.8C555.285 334.8 554.065 335.34 553.325 336.24V334.98H551.045V346H553.325V339.84C553.325 337.82 554.425 336.78 556.105 336.78C557.765 336.78 558.865 337.82 558.865 339.84V346ZM563.273 340.44C563.273 343.84 565.573 346.18 568.473 346.18C570.273 346.18 571.593 345.28 572.293 344.34V346.18C572.293 348.38 570.973 349.46 569.213 349.46C567.633 349.46 566.413 348.68 566.073 347.54H563.813C564.093 349.98 566.273 351.44 569.213 351.44C572.653 351.44 574.593 349.18 574.593 346.18V334.98H572.293V336.58C571.613 335.64 570.273 334.8 568.473 334.8C565.573 334.8 563.273 337.04 563.273 340.44ZM572.293 340.48C572.293 342.86 570.673 344.2 568.953 344.2C567.253 344.2 565.613 342.82 565.613 340.44C565.613 338.06 567.253 336.78 568.953 336.78C570.673 336.78 572.293 338.12 572.293 340.48ZM582.023 340.44C582.023 343.84 584.323 346.18 587.183 346.18C589.023 346.18 590.343 345.3 591.043 344.36V346H593.343V334.98H591.043V336.58C590.363 335.68 589.083 334.8 587.223 334.8C584.323 334.8 582.023 337.04 582.023 340.44ZM591.043 340.48C591.043 342.86 589.423 344.2 587.703 344.2C586.003 344.2 584.363 342.82 584.363 340.44C584.363 338.06 586.003 336.78 587.703 336.78C589.423 336.78 591.043 338.12 591.043 340.48ZM604.158 346H606.418V339.5C606.418 336.42 604.478 334.8 601.898 334.8C600.578 334.8 599.358 335.34 598.618 336.24V334.98H596.338V346H598.618V339.84C598.618 337.82 599.718 336.78 601.398 336.78C603.058 336.78 604.158 337.82 604.158 339.84V346ZM608.566 340.44C608.566 343.84 610.866 346.18 613.766 346.18C615.566 346.18 616.886 345.34 617.586 344.34V346H619.886V331.2H617.586V336.52C616.746 335.48 615.226 334.8 613.786 334.8C610.866 334.8 608.566 337.04 608.566 340.44ZM617.586 340.48C617.586 342.86 615.966 344.2 614.246 344.2C612.546 344.2 610.906 342.82 610.906 340.44C610.906 338.06 612.546 336.78 614.246 336.78C615.966 336.78 617.586 338.12 617.586 340.48ZM637.456 342.06C637.456 336.98 630.096 338.94 630.096 335.8C630.096 334.46 631.116 333.82 632.436 333.86C633.876 333.9 634.696 334.76 634.776 335.7H637.296C637.096 333.32 635.216 331.92 632.556 331.92C629.716 331.92 627.776 333.44 627.776 335.88C627.776 341 635.156 338.82 635.156 342.18C635.156 343.36 634.256 344.22 632.656 344.22C631.076 344.22 630.276 343.3 630.176 342.16H627.736C627.736 344.62 629.876 346.14 632.656 346.14C635.756 346.14 637.456 344.14 637.456 342.06ZM644.786 336.72C646.486 336.72 647.826 337.8 647.866 339.5H641.766C642.006 337.76 643.246 336.72 644.786 336.72ZM649.946 342.72H647.486C647.066 343.58 646.286 344.26 644.886 344.26C643.206 344.26 641.906 343.16 641.746 341.34H650.166C650.226 340.96 650.246 340.6 650.246 340.22C650.246 336.98 648.026 334.8 644.886 334.8C641.626 334.8 639.386 337.02 639.386 340.48C639.386 343.94 641.726 346.18 644.886 346.18C647.586 346.18 649.326 344.64 649.946 342.72ZM652.49 346H654.77V331.2H652.49V346ZM657.764 346H660.044V331.2H657.764V346ZM663.037 346H665.317V334.98H663.037V346ZM664.197 333.52C664.997 333.52 665.637 332.88 665.637 332.06C665.637 331.24 664.997 330.6 664.197 330.6C663.377 330.6 662.737 331.24 662.737 332.06C662.737 332.88 663.377 333.52 664.197 333.52ZM676.131 346H678.391V339.5C678.391 336.42 676.451 334.8 673.871 334.8C672.551 334.8 671.331 335.34 670.591 336.24V334.98H668.311V346H670.591V339.84C670.591 337.82 671.691 336.78 673.371 336.78C675.031 336.78 676.131 337.82 676.131 339.84V346ZM680.539 340.44C680.539 343.84 682.839 346.18 685.739 346.18C687.539 346.18 688.859 345.28 689.559 344.34V346.18C689.559 348.38 688.239 349.46 686.479 349.46C684.899 349.46 683.679 348.68 683.339 347.54H681.079C681.359 349.98 683.539 351.44 686.479 351.44C689.919 351.44 691.859 349.18 691.859 346.18V334.98H689.559V336.58C688.879 335.64 687.539 334.8 685.739 334.8C682.839 334.8 680.539 337.04 680.539 340.44ZM689.559 340.48C689.559 342.86 687.939 344.2 686.219 344.2C684.519 344.2 682.879 342.82 682.879 340.44C682.879 338.06 684.519 336.78 686.219 336.78C687.939 336.78 689.559 338.12 689.559 340.48ZM707.429 336.26C707.429 337.64 706.629 338.62 704.849 338.62H702.329V333.96H704.849C706.629 333.96 707.429 334.86 707.429 336.26ZM700.049 332.1V346H702.329V340.44H704.069L707.269 346H709.989L706.549 340.24C708.889 339.66 709.769 337.9 709.769 336.26C709.769 334 708.149 332.1 704.849 332.1H700.049ZM717.326 336.72C719.026 336.72 720.366 337.8 720.406 339.5H714.306C714.546 337.76 715.786 336.72 717.326 336.72ZM722.486 342.72H720.026C719.606 343.58 718.826 344.26 717.426 344.26C715.746 344.26 714.446 343.16 714.286 341.34H722.706C722.766 340.96 722.786 340.6 722.786 340.22C722.786 336.98 720.566 334.8 717.426 334.8C714.166 334.8 711.926 337.02 711.926 340.48C711.926 343.94 714.266 346.18 717.426 346.18C720.126 346.18 721.866 344.64 722.486 342.72ZM724.269 340.44C724.269 343.84 726.569 346.18 729.429 346.18C731.269 346.18 732.589 345.3 733.289 344.36V346H735.589V334.98H733.289V336.58C732.609 335.68 731.329 334.8 729.469 334.8C726.569 334.8 724.269 337.04 724.269 340.44ZM733.289 340.48C733.289 342.86 731.669 344.2 729.949 344.2C728.249 344.2 726.609 342.82 726.609 340.44C726.609 338.06 728.249 336.78 729.949 336.78C731.669 336.78 733.289 338.12 733.289 340.48ZM738.584 346H740.864V331.2H738.584V346ZM756.733 332.08H749.053V346H756.733V344.14H751.333V339.88H756.133V338.02H751.333V333.94H756.733V332.08ZM767.761 342.92C767.641 338.94 761.421 340.18 761.421 337.96C761.421 337.22 762.061 336.72 763.281 336.72C764.521 336.72 765.261 337.38 765.341 338.34H767.621C767.501 336.14 765.861 334.8 763.361 334.8C760.761 334.8 759.121 336.22 759.121 337.98C759.121 342.02 765.521 340.78 765.521 342.94C765.521 343.7 764.821 344.26 763.501 344.26C762.241 344.26 761.381 343.52 761.301 342.62H758.941C759.041 344.62 760.901 346.18 763.541 346.18C766.141 346.18 767.761 344.78 767.761 342.92ZM770.585 342.94C770.585 345.18 771.805 346 773.765 346H775.565V344.1H774.165C773.205 344.1 772.885 343.76 772.885 342.94V336.84H775.565V334.98H772.885V332.24H770.585V334.98H769.285V336.84H770.585V342.94ZM776.906 340.44C776.906 343.84 779.206 346.18 782.066 346.18C783.906 346.18 785.226 345.3 785.926 344.36V346H788.226V334.98H785.926V336.58C785.246 335.68 783.966 334.8 782.106 334.8C779.206 334.8 776.906 337.04 776.906 340.44ZM785.926 340.48C785.926 342.86 784.306 344.2 782.586 344.2C780.886 344.2 779.246 342.82 779.246 340.44C779.246 338.06 780.886 336.78 782.586 336.78C784.306 336.78 785.926 338.12 785.926 340.48ZM791.581 342.94C791.581 345.18 792.801 346 794.761 346H796.561V344.1H795.161C794.201 344.1 793.881 343.76 793.881 342.94V336.84H796.561V334.98H793.881V332.24H791.581V334.98H790.281V336.84H791.581V342.94ZM803.302 336.72C805.002 336.72 806.342 337.8 806.382 339.5H800.282C800.522 337.76 801.762 336.72 803.302 336.72ZM808.462 342.72H806.002C805.582 343.58 804.802 344.26 803.402 344.26C801.722 344.26 800.422 343.16 800.262 341.34H808.682C808.742 340.96 808.762 340.6 808.762 340.22C808.762 336.98 806.542 334.8 803.402 334.8C800.142 334.8 797.902 337.02 797.902 340.48C797.902 343.94 800.242 346.18 803.402 346.18C806.102 346.18 807.842 344.64 808.462 342.72Z" fill="#FDB814"/>
<path d="M756.5 492H758.78V478.1H756.5V492ZM769.593 492H771.853V485.5C771.853 482.42 769.913 480.8 767.333 480.8C766.013 480.8 764.793 481.34 764.053 482.24V480.98H761.773V492H764.053V485.84C764.053 483.82 765.153 482.78 766.833 482.78C768.493 482.78 769.593 483.82 769.593 485.84V492ZM773.462 480.98L777.642 492H780.362L784.562 480.98H782.142L779.022 489.96L775.902 480.98H773.462ZM790.925 482.72C792.625 482.72 793.965 483.8 794.005 485.5H787.905C788.145 483.76 789.385 482.72 790.925 482.72ZM796.085 488.72H793.625C793.205 489.58 792.425 490.26 791.025 490.26C789.345 490.26 788.045 489.16 787.885 487.34H796.305C796.365 486.96 796.385 486.6 796.385 486.22C796.385 482.98 794.165 480.8 791.025 480.8C787.765 480.8 785.525 483.02 785.525 486.48C785.525 489.94 787.865 492.18 791.025 492.18C793.725 492.18 795.465 490.64 796.085 488.72ZM806.849 488.92C806.729 484.94 800.509 486.18 800.509 483.96C800.509 483.22 801.149 482.72 802.369 482.72C803.609 482.72 804.349 483.38 804.429 484.34H806.709C806.589 482.14 804.949 480.8 802.449 480.8C799.849 480.8 798.209 482.22 798.209 483.98C798.209 488.02 804.609 486.78 804.609 488.94C804.609 489.7 803.909 490.26 802.589 490.26C801.329 490.26 800.469 489.52 800.389 488.62H798.029C798.129 490.62 799.989 492.18 802.629 492.18C805.229 492.18 806.849 490.78 806.849 488.92ZM809.673 488.94C809.673 491.18 810.893 492 812.853 492H814.653V490.1H813.253C812.293 490.1 811.973 489.76 811.973 488.94V482.84H814.653V480.98H811.973V478.24H809.673V480.98H808.373V482.84H809.673V488.94ZM816.754 492H819.034V480.98H816.754V492ZM817.914 479.52C818.714 479.52 819.354 478.88 819.354 478.06C819.354 477.24 818.714 476.6 817.914 476.6C817.094 476.6 816.454 477.24 816.454 478.06C816.454 478.88 817.094 479.52 817.914 479.52ZM829.847 492H832.107V485.5C832.107 482.42 830.167 480.8 827.587 480.8C826.267 480.8 825.047 481.34 824.307 482.24V480.98H822.027V492H824.307V485.84C824.307 483.82 825.407 482.78 827.087 482.78C828.747 482.78 829.847 483.82 829.847 485.84V492ZM834.256 486.44C834.256 489.84 836.556 492.18 839.456 492.18C841.256 492.18 842.576 491.28 843.276 490.34V492.18C843.276 494.38 841.956 495.46 840.196 495.46C838.616 495.46 837.396 494.68 837.056 493.54H834.796C835.076 495.98 837.256 497.44 840.196 497.44C843.636 497.44 845.576 495.18 845.576 492.18V480.98H843.276V482.58C842.596 481.64 841.256 480.8 839.456 480.8C836.556 480.8 834.256 483.04 834.256 486.44ZM843.276 486.48C843.276 488.86 841.656 490.2 839.936 490.2C838.236 490.2 836.596 488.82 836.596 486.44C836.596 484.06 838.236 482.78 839.936 482.78C841.656 482.78 843.276 484.12 843.276 486.48ZM853.006 486.44C853.006 489.84 855.306 492.18 858.206 492.18C860.006 492.18 861.326 491.34 862.026 490.34V492H864.326V477.2H862.026V482.52C861.186 481.48 859.666 480.8 858.226 480.8C855.306 480.8 853.006 483.04 853.006 486.44ZM862.026 486.48C862.026 488.86 860.406 490.2 858.686 490.2C856.986 490.2 855.346 488.82 855.346 486.44C855.346 484.06 856.986 482.78 858.686 482.78C860.406 482.78 862.026 484.12 862.026 486.48ZM867.32 492H869.6V480.98H867.32V492ZM868.48 479.52C869.28 479.52 869.92 478.88 869.92 478.06C869.92 477.24 869.28 476.6 868.48 476.6C867.66 476.6 867.02 477.24 867.02 478.06C867.02 478.88 867.66 479.52 868.48 479.52ZM874.874 486.2C874.874 483.86 875.914 483.16 877.594 483.16H878.174V480.8C876.614 480.8 875.514 481.48 874.874 482.58V480.98H872.594V492H874.874V486.2ZM884.91 482.72C886.61 482.72 887.95 483.8 887.99 485.5H881.89C882.13 483.76 883.37 482.72 884.91 482.72ZM890.07 488.72H887.61C887.19 489.58 886.41 490.26 885.01 490.26C883.33 490.26 882.03 489.16 881.87 487.34H890.29C890.35 486.96 890.37 486.6 890.37 486.22C890.37 482.98 888.15 480.8 885.01 480.8C881.75 480.8 879.51 483.02 879.51 486.48C879.51 489.94 881.85 492.18 885.01 492.18C887.71 492.18 889.45 490.64 890.07 488.72ZM891.853 486.48C891.853 489.94 894.093 492.18 897.253 492.18C899.953 492.18 901.713 490.68 902.333 488.52H899.873C899.453 489.66 898.613 490.26 897.253 490.26C895.413 490.26 894.193 488.9 894.193 486.48C894.193 484.08 895.413 482.72 897.253 482.72C898.613 482.72 899.493 483.4 899.873 484.46H902.333C901.713 482.14 899.953 480.8 897.253 480.8C894.093 480.8 891.853 483.04 891.853 486.48ZM904.965 488.94C904.965 491.18 906.185 492 908.145 492H909.945V490.1H908.545C907.585 490.1 907.265 489.76 907.265 488.94V482.84H909.945V480.98H907.265V478.24H904.965V480.98H903.665V482.84H904.965V488.94ZM912.047 492H914.327V477.2H912.047V492ZM921.66 489.38L918.56 480.98H916.02L920.36 491.82L918.12 497.18H920.48L927.24 480.98H924.88L921.66 489.38Z" fill="white"/>
<path d="M102.88 467H105.28L100.3 453.08H97.66L92.68 467H95.06L96.06 464.16H101.88L102.88 467ZM101.24 462.3H96.7L98.98 455.84L101.24 462.3ZM107.725 467H110.025V457.84H112.065V455.98H110.025V455.2C110.025 453.94 110.505 453.46 111.905 453.46V451.56C109.025 451.56 107.725 452.66 107.725 455.2V455.98H106.425V457.84H107.725V467ZM114.446 463.94C114.446 466.18 115.666 467 117.626 467H119.426V465.1H118.026C117.066 465.1 116.746 464.76 116.746 463.94V457.84H119.426V455.98H116.746V453.24H114.446V455.98H113.146V457.84H114.446V463.94ZM126.167 457.72C127.867 457.72 129.207 458.8 129.247 460.5H123.147C123.387 458.76 124.627 457.72 126.167 457.72ZM131.327 463.72H128.867C128.447 464.58 127.667 465.26 126.267 465.26C124.587 465.26 123.287 464.16 123.127 462.34H131.547C131.607 461.96 131.627 461.6 131.627 461.22C131.627 457.98 129.407 455.8 126.267 455.8C123.007 455.8 120.767 458.02 120.767 461.48C120.767 464.94 123.107 467.18 126.267 467.18C128.967 467.18 130.707 465.64 131.327 463.72ZM136.151 461.2C136.151 458.86 137.191 458.16 138.871 458.16H139.451V455.8C137.891 455.8 136.791 456.48 136.151 457.58V455.98H133.871V467H136.151V461.2ZM147.102 463.94C147.102 466.18 148.322 467 150.282 467H152.082V465.1H150.682C149.722 465.1 149.402 464.76 149.402 463.94V457.84H152.082V455.98H149.402V453.24H147.102V455.98H145.802V457.84H147.102V463.94ZM154.184 467H156.464V460.84C156.464 458.82 157.564 457.78 159.244 457.78C160.904 457.78 162.004 458.82 162.004 460.84V467H164.264V460.5C164.264 457.42 162.344 455.8 159.884 455.8C158.464 455.8 157.224 456.34 156.464 457.26V452.2H154.184V467ZM171.812 457.72C173.512 457.72 174.852 458.8 174.892 460.5H168.792C169.032 458.76 170.272 457.72 171.812 457.72ZM176.972 463.72H174.512C174.092 464.58 173.312 465.26 171.912 465.26C170.232 465.26 168.932 464.16 168.772 462.34H177.192C177.252 461.96 177.272 461.6 177.272 461.22C177.272 457.98 175.052 455.8 171.912 455.8C168.652 455.8 166.412 458.02 166.412 461.48C166.412 464.94 168.752 467.18 171.912 467.18C174.612 467.18 176.352 465.64 176.972 463.72ZM183.951 461.48C183.951 464.94 186.191 467.18 189.351 467.18C192.051 467.18 193.811 465.68 194.431 463.52H191.971C191.551 464.66 190.711 465.26 189.351 465.26C187.511 465.26 186.291 463.9 186.291 461.48C186.291 459.08 187.511 457.72 189.351 457.72C190.711 457.72 191.591 458.4 191.971 459.46H194.431C193.811 457.14 192.051 455.8 189.351 455.8C186.191 455.8 183.951 458.04 183.951 461.48ZM207.203 461.48C207.203 458.02 204.723 455.8 201.583 455.8C198.443 455.8 195.963 458.02 195.963 461.48C195.963 464.94 198.343 467.18 201.483 467.18C204.643 467.18 207.203 464.94 207.203 461.48ZM198.283 461.48C198.283 458.98 199.823 457.78 201.543 457.78C203.243 457.78 204.863 458.98 204.863 461.48C204.863 463.98 203.183 465.2 201.483 465.2C199.763 465.2 198.283 463.98 198.283 461.48ZM217.277 467H219.537V460.5C219.537 457.42 217.597 455.8 215.017 455.8C213.697 455.8 212.477 456.34 211.737 457.24V455.98H209.457V467H211.737V460.84C211.737 458.82 212.837 457.78 214.517 457.78C216.177 457.78 217.277 458.82 217.277 460.84V467ZM222.805 463.94C222.805 466.18 224.025 467 225.985 467H227.785V465.1H226.385C225.425 465.1 225.105 464.76 225.105 463.94V457.84H227.785V455.98H225.105V453.24H222.805V455.98H221.505V457.84H222.805V463.94ZM232.167 461.2C232.167 458.86 233.207 458.16 234.887 458.16H235.467V455.8C233.907 455.8 232.807 456.48 232.167 457.58V455.98H229.887V467H232.167V461.2ZM237.563 467H239.843V455.98H237.563V467ZM238.723 454.52C239.523 454.52 240.163 453.88 240.163 453.06C240.163 452.24 239.523 451.6 238.723 451.6C237.903 451.6 237.263 452.24 237.263 453.06C237.263 453.88 237.903 454.52 238.723 454.52ZM245.116 457.62V452.2H242.836V467H245.116V465.4C245.836 466.36 247.136 467.18 248.956 467.18C251.856 467.18 254.136 464.84 254.136 461.44C254.136 458.04 251.876 455.8 248.956 455.8C247.216 455.8 245.836 456.62 245.116 457.62ZM251.816 461.44C251.816 463.82 250.176 465.2 248.456 465.2C246.756 465.2 245.116 463.86 245.116 461.48C245.116 459.12 246.756 457.78 248.456 457.78C250.176 457.78 251.816 459.06 251.816 461.44ZM266.371 455.98H264.091V462.12C264.091 464.14 262.991 465.18 261.311 465.18C259.651 465.18 258.551 464.14 258.551 462.12V455.98H256.291V462.46C256.291 465.54 258.251 467.16 260.831 467.16C262.131 467.16 263.371 466.62 264.091 465.68V467H266.371V455.98ZM269.739 463.94C269.739 466.18 270.959 467 272.919 467H274.719V465.1H273.319C272.359 465.1 272.039 464.76 272.039 463.94V457.84H274.719V455.98H272.039V453.24H269.739V455.98H268.439V457.84H269.739V463.94ZM276.82 467H279.1V455.98H276.82V467ZM277.98 454.52C278.78 454.52 279.42 453.88 279.42 453.06C279.42 452.24 278.78 451.6 277.98 451.6C277.16 451.6 276.52 452.24 276.52 453.06C276.52 453.88 277.16 454.52 277.98 454.52ZM292.594 461.48C292.594 458.02 290.114 455.8 286.974 455.8C283.834 455.8 281.354 458.02 281.354 461.48C281.354 464.94 283.734 467.18 286.874 467.18C290.034 467.18 292.594 464.94 292.594 461.48ZM283.674 461.48C283.674 458.98 285.214 457.78 286.934 457.78C288.634 457.78 290.254 458.98 290.254 461.48C290.254 463.98 288.574 465.2 286.874 465.2C285.154 465.2 283.674 463.98 283.674 461.48ZM302.668 467H304.928V460.5C304.928 457.42 302.988 455.8 300.408 455.8C299.088 455.8 297.868 456.34 297.128 457.24V455.98H294.848V467H297.128V460.84C297.128 458.82 298.228 457.78 299.908 457.78C301.568 457.78 302.668 458.82 302.668 460.84V467ZM313.391 463.94C313.391 466.18 314.611 467 316.571 467H318.371V465.1H316.971C316.011 465.1 315.691 464.76 315.691 463.94V457.84H318.371V455.98H315.691V453.24H313.391V455.98H312.091V457.84H313.391V463.94ZM325.113 457.72C326.813 457.72 328.153 458.8 328.193 460.5H322.093C322.333 458.76 323.573 457.72 325.113 457.72ZM330.273 463.72H327.813C327.393 464.58 326.613 465.26 325.213 465.26C323.533 465.26 322.233 464.16 322.073 462.34H330.493C330.553 461.96 330.573 461.6 330.573 461.22C330.573 457.98 328.353 455.8 325.213 455.8C321.953 455.8 319.713 458.02 319.713 461.48C319.713 464.94 322.053 467.18 325.213 467.18C327.913 467.18 329.653 465.64 330.273 463.72ZM335.096 461.2C335.096 458.86 336.136 458.16 337.816 458.16H338.396V455.8C336.836 455.8 335.736 456.48 335.096 457.58V455.98H332.816V467H335.096V461.2ZM356.112 467H358.372V460.5C358.372 457.42 356.412 455.8 353.832 455.8C352.232 455.8 350.672 456.64 349.992 457.98C349.232 456.54 347.772 455.8 346.032 455.8C344.712 455.8 343.512 456.34 342.772 457.24V455.98H340.492V467H342.772V460.84C342.772 458.82 343.872 457.78 345.552 457.78C347.212 457.78 348.312 458.82 348.312 460.84V467H350.572V460.84C350.572 458.82 351.672 457.78 353.352 457.78C355.012 457.78 356.112 458.82 356.112 460.84V467ZM359.873 469.78H361.353L363.773 464.26H361.293L359.873 469.78ZM371.321 463.94C371.321 466.18 372.541 467 374.501 467H376.301V465.1H374.901C373.941 465.1 373.621 464.76 373.621 463.94V457.84H376.301V455.98H373.621V453.24H371.321V455.98H370.021V457.84H371.321V463.94ZM377.642 461.44C377.642 464.84 379.942 467.18 382.802 467.18C384.642 467.18 385.962 466.3 386.662 465.36V467H388.962V455.98H386.662V457.58C385.982 456.68 384.702 455.8 382.842 455.8C379.942 455.8 377.642 458.04 377.642 461.44ZM386.662 461.48C386.662 463.86 385.042 465.2 383.322 465.2C381.622 465.2 379.982 463.82 379.982 461.44C379.982 459.06 381.622 457.78 383.322 457.78C385.042 457.78 386.662 459.12 386.662 461.48ZM391.957 467H394.237V462.26L398.317 467H401.397L396.317 461.5L401.397 455.98H398.237L394.237 460.8V452.2H391.957V467ZM407.671 457.72C409.371 457.72 410.711 458.8 410.751 460.5H404.651C404.891 458.76 406.131 457.72 407.671 457.72ZM412.831 463.72H410.371C409.951 464.58 409.171 465.26 407.771 465.26C406.091 465.26 404.791 464.16 404.631 462.34H413.051C413.111 461.96 413.131 461.6 413.131 461.22C413.131 457.98 410.911 455.8 407.771 455.8C404.511 455.8 402.271 458.02 402.271 461.48C402.271 464.94 404.611 467.18 407.771 467.18C410.471 467.18 412.211 465.64 412.831 463.72ZM422.85 457.6V455.98H420.57V472.24H422.85V465.4C423.57 466.26 424.87 467.18 426.69 467.18C429.59 467.18 431.87 464.84 431.87 461.44C431.87 458.04 429.59 455.8 426.69 455.8C424.89 455.8 423.55 456.68 422.85 457.6ZM429.55 461.44C429.55 463.82 427.91 465.2 426.19 465.2C424.49 465.2 422.85 463.86 422.85 461.48C422.85 459.12 424.49 457.78 426.19 457.78C427.91 457.78 429.55 459.06 429.55 461.44ZM436.405 461.2C436.405 458.86 437.445 458.16 439.125 458.16H439.705V455.8C438.145 455.8 437.045 456.48 436.405 457.58V455.98H434.125V467H436.405V461.2ZM452.301 461.48C452.301 458.02 449.821 455.8 446.681 455.8C443.541 455.8 441.061 458.02 441.061 461.48C441.061 464.94 443.441 467.18 446.581 467.18C449.741 467.18 452.301 464.94 452.301 461.48ZM443.381 461.48C443.381 458.98 444.921 457.78 446.641 457.78C448.341 457.78 449.961 458.98 449.961 461.48C449.961 463.98 448.281 465.2 446.581 465.2C444.861 465.2 443.381 463.98 443.381 461.48ZM454.835 467H457.135V457.84H459.175V455.98H457.135V455.2C457.135 453.94 457.615 453.46 459.015 453.46V451.56C456.135 451.56 454.835 452.66 454.835 455.2V455.98H453.535V457.84H454.835V467ZM461.195 467H463.475V455.98H461.195V467ZM462.355 454.52C463.155 454.52 463.795 453.88 463.795 453.06C463.795 452.24 463.155 451.6 462.355 451.6C461.535 451.6 460.895 452.24 460.895 453.06C460.895 453.88 461.535 454.52 462.355 454.52ZM466.829 463.94C466.829 466.18 468.049 467 470.009 467H471.809V465.1H470.409C469.449 465.1 469.129 464.76 469.129 463.94V457.84H471.809V455.98H469.129V453.24H466.829V455.98H465.529V457.84H466.829V463.94ZM478.345 461.44C478.345 464.84 480.645 467.18 483.505 467.18C485.345 467.18 486.665 466.3 487.365 465.36V467H489.665V455.98H487.365V457.58C486.685 456.68 485.405 455.8 483.545 455.8C480.645 455.8 478.345 458.04 478.345 461.44ZM487.365 461.48C487.365 463.86 485.745 465.2 484.025 465.2C482.325 465.2 480.685 463.82 480.685 461.44C480.685 459.06 482.325 457.78 484.025 457.78C485.745 457.78 487.365 459.12 487.365 461.48ZM500.48 467H502.74V460.5C502.74 457.42 500.8 455.8 498.22 455.8C496.9 455.8 495.68 456.34 494.94 457.24V455.98H492.66V467H494.94V460.84C494.94 458.82 496.04 457.78 497.72 457.78C499.38 457.78 500.48 458.82 500.48 460.84V467ZM504.888 461.44C504.888 464.84 507.188 467.18 510.088 467.18C511.888 467.18 513.208 466.34 513.908 465.34V467H516.208V452.2H513.908V457.52C513.068 456.48 511.548 455.8 510.108 455.8C507.188 455.8 504.888 458.04 504.888 461.44ZM513.908 461.48C513.908 463.86 512.288 465.2 510.568 465.2C508.868 465.2 507.228 463.82 507.228 461.44C507.228 459.06 508.868 457.78 510.568 457.78C512.288 457.78 513.908 459.12 513.908 461.48ZM95.64 497H98.04L100.26 488.86L102.48 497H104.88L108.3 485.98H106.06L103.78 494.8L101.54 485.98H99.16L96.82 494.84L94.52 485.98H92.2L95.64 497ZM110.004 497H112.284V485.98H110.004V497ZM111.164 484.52C111.964 484.52 112.604 483.88 112.604 483.06C112.604 482.24 111.964 481.6 111.164 481.6C110.344 481.6 109.704 482.24 109.704 483.06C109.704 483.88 110.344 484.52 111.164 484.52ZM115.637 493.94C115.637 496.18 116.857 497 118.817 497H120.617V495.1H119.217C118.257 495.1 117.937 494.76 117.937 493.94V487.84H120.617V485.98H117.937V483.24H115.637V485.98H114.337V487.84H115.637V493.94ZM122.719 497H124.999V490.84C124.999 488.82 126.099 487.78 127.779 487.78C129.439 487.78 130.539 488.82 130.539 490.84V497H132.799V490.5C132.799 487.42 130.879 485.8 128.419 485.8C126.999 485.8 125.759 486.34 124.999 487.26V482.2H122.719V497ZM134.947 491.44C134.947 494.84 137.247 497.18 140.147 497.18C141.947 497.18 143.267 496.34 143.967 495.34V497H146.267V482.2H143.967V487.52C143.127 486.48 141.607 485.8 140.167 485.8C137.247 485.8 134.947 488.04 134.947 491.44ZM143.967 491.48C143.967 493.86 142.347 495.2 140.627 495.2C138.927 495.2 137.287 493.82 137.287 491.44C137.287 489.06 138.927 487.78 140.627 487.78C142.347 487.78 143.967 489.12 143.967 491.48ZM151.542 491.2C151.542 488.86 152.582 488.16 154.262 488.16H154.842V485.8C153.282 485.8 152.182 486.48 151.542 487.58V485.98H149.262V497H151.542V491.2ZM156.178 491.44C156.178 494.84 158.478 497.18 161.338 497.18C163.178 497.18 164.498 496.3 165.198 495.36V497H167.498V485.98H165.198V487.58C164.518 486.68 163.238 485.8 161.378 485.8C158.478 485.8 156.178 488.04 156.178 491.44ZM165.198 491.48C165.198 493.86 163.578 495.2 161.858 495.2C160.158 495.2 158.518 493.82 158.518 491.44C158.518 489.06 160.158 487.78 161.858 487.78C163.578 487.78 165.198 489.12 165.198 491.48ZM172.632 497H175.032L177.252 488.86L179.472 497H181.872L185.292 485.98H183.052L180.772 494.8L178.532 485.98H176.152L173.812 494.84L171.512 485.98H169.192L172.632 497ZM196.531 494.38L193.431 485.98H190.891L195.231 496.82L192.991 502.18H195.351L202.111 485.98H199.751L196.531 494.38ZM214.332 491.48C214.332 488.02 211.852 485.8 208.712 485.8C205.572 485.8 203.092 488.02 203.092 491.48C203.092 494.94 205.472 497.18 208.612 497.18C211.772 497.18 214.332 494.94 214.332 491.48ZM205.412 491.48C205.412 488.98 206.952 487.78 208.672 487.78C210.372 487.78 211.992 488.98 211.992 491.48C211.992 493.98 210.312 495.2 208.612 495.2C206.892 495.2 205.412 493.98 205.412 491.48ZM226.566 485.98H224.286V492.12C224.286 494.14 223.186 495.18 221.506 495.18C219.846 495.18 218.746 494.14 218.746 492.12V485.98H216.486V492.46C216.486 495.54 218.446 497.16 221.026 497.16C222.326 497.16 223.566 496.62 224.286 495.68V497H226.566V485.98ZM231.854 491.2C231.854 488.86 232.894 488.16 234.574 488.16H235.154V485.8C233.594 485.8 232.494 486.48 231.854 487.58V485.98H229.574V497H231.854V491.2ZM242.445 497H244.725V485.98H242.445V497ZM243.605 484.52C244.405 484.52 245.045 483.88 245.045 483.06C245.045 482.24 244.405 481.6 243.605 481.6C242.785 481.6 242.145 482.24 242.145 483.06C242.145 483.88 242.785 484.52 243.605 484.52ZM255.539 497H257.799V490.5C257.799 487.42 255.859 485.8 253.279 485.8C251.959 485.8 250.739 486.34 249.999 487.24V485.98H247.719V497H249.999V490.84C249.999 488.82 251.099 487.78 252.779 487.78C254.439 487.78 255.539 488.82 255.539 490.84V497ZM259.407 485.98L263.587 497H266.307L270.507 485.98H268.087L264.967 494.96L261.847 485.98H259.407ZM276.87 487.72C278.57 487.72 279.91 488.8 279.95 490.5H273.85C274.09 488.76 275.33 487.72 276.87 487.72ZM282.03 493.72H279.57C279.15 494.58 278.37 495.26 276.97 495.26C275.29 495.26 273.99 494.16 273.83 492.34H282.25C282.31 491.96 282.33 491.6 282.33 491.22C282.33 487.98 280.11 485.8 276.97 485.8C273.71 485.8 271.47 488.02 271.47 491.48C271.47 494.94 273.81 497.18 276.97 497.18C279.67 497.18 281.41 495.64 282.03 493.72ZM292.794 493.92C292.674 489.94 286.454 491.18 286.454 488.96C286.454 488.22 287.094 487.72 288.314 487.72C289.554 487.72 290.294 488.38 290.374 489.34H292.654C292.534 487.14 290.894 485.8 288.394 485.8C285.794 485.8 284.154 487.22 284.154 488.98C284.154 493.02 290.554 491.78 290.554 493.94C290.554 494.7 289.854 495.26 288.534 495.26C287.274 495.26 286.414 494.52 286.334 493.62H283.974C284.074 495.62 285.934 497.18 288.574 497.18C291.174 497.18 292.794 495.78 292.794 493.92ZM295.618 493.94C295.618 496.18 296.838 497 298.798 497H300.598V495.1H299.198C298.238 495.1 297.918 494.76 297.918 493.94V487.84H300.598V485.98H297.918V483.24H295.618V485.98H294.318V487.84H295.618V493.94ZM318.319 497H320.579V490.5C320.579 487.42 318.619 485.8 316.039 485.8C314.439 485.8 312.879 486.64 312.199 487.98C311.439 486.54 309.979 485.8 308.239 485.8C306.919 485.8 305.719 486.34 304.979 487.24V485.98H302.699V497H304.979V490.84C304.979 488.82 306.079 487.78 307.759 487.78C309.419 487.78 310.519 488.82 310.519 490.84V497H312.779V490.84C312.779 488.82 313.879 487.78 315.559 487.78C317.219 487.78 318.319 488.82 318.319 490.84V497ZM328.12 487.72C329.82 487.72 331.16 488.8 331.2 490.5H325.1C325.34 488.76 326.58 487.72 328.12 487.72ZM333.28 493.72H330.82C330.4 494.58 329.62 495.26 328.22 495.26C326.54 495.26 325.24 494.16 325.08 492.34H333.5C333.56 491.96 333.58 491.6 333.58 491.22C333.58 487.98 331.36 485.8 328.22 485.8C324.96 485.8 322.72 488.02 322.72 491.48C322.72 494.94 325.06 497.18 328.22 497.18C330.92 497.18 332.66 495.64 333.28 493.72ZM343.644 497H345.904V490.5C345.904 487.42 343.964 485.8 341.384 485.8C340.064 485.8 338.844 486.34 338.104 487.24V485.98H335.824V497H338.104V490.84C338.104 488.82 339.204 487.78 340.884 487.78C342.544 487.78 343.644 488.82 343.644 490.84V497ZM349.173 493.94C349.173 496.18 350.393 497 352.353 497H354.153V495.1H352.753C351.793 495.1 351.473 494.76 351.473 493.94V487.84H354.153V485.98H351.473V483.24H349.173V485.98H347.873V487.84H349.173V493.94Z" fill="white"/>
<path d="M75 72V52L59.5455 72H75Z" fill="#FDB814"/>
<path d="M75 206V186L59.5455 206H75Z" fill="#FDB814"/>
<path d="M738 492V472L722.545 492H738Z" fill="#FDB814"/>
<path d="M75 497V477L59.5455 497H75Z" fill="#FDB814"/>
<path d="M687 206V186L671.375 206H687Z" fill="#FDB814"/>
<path opacity="0.5" d="M597.135 202.5L590.284 191.675L590.284 213.325L597.135 202.5Z" fill="#FDB814"/>
<path d="M613.308 202.5L606.457 191.675L606.457 213.325L613.308 202.5Z" fill="#FDB814"/>
<path opacity="0.5" d="M630.173 484.5L637.024 473.675L637.024 495.325L630.173 484.5Z" fill="#FDB814"/>
<path d="M614 484.5L620.851 473.675L620.851 495.325L614 484.5Z" fill="#FDB814"/>
<path opacity="0.5" d="M843.5 239.135L854.325 232.284H832.675L843.5 239.135Z" fill="#FDB814"/>
<path d="M843.5 255.308L854.325 248.457H832.675L843.5 255.308Z" fill="#FDB814"/>
<path opacity="0.5" d="M843.5 437.135L854.325 430.284H832.675L843.5 437.135Z" fill="#FDB814"/>
<path d="M843.5 453.308L854.325 446.457H832.675L843.5 453.308Z" fill="#FDB814"/>
<path d="M617 317V287H1023V317" stroke="white" stroke-width="0.5"/>
<path d="M617 369V399H1024V369" stroke="white" stroke-width="0.5"/>
<path opacity="0.5" d="M260.5 130.135L271.325 123.284H249.675L260.5 130.135Z" fill="#FDB814"/>
<path d="M260.5 146.308L271.325 139.457H249.675L260.5 146.308Z" fill="#FDB814"/>
</svg>
